<svg stroke="currentColor" fill="none" stroke-width="0" width="1em" height="1em" viewBox="0 0 24 24" xmlns="http://www.w3.org/2000/svg"><path fill-rule="evenodd" clip-rule="evenodd" d="M9.76958 6.1913C14.0781 1.7716 18.5448 1.78642 20.8189 2.80209L21.0809 2.91908L21.1979 3.18105C22.2097 5.44664 22.2283 9.88815 17.8586 14.1816C19.027 16.2747 18.6339 18.1315 17.9153 19.4481C17.5453 20.1258 17.0929 20.6587 16.7374 21.0201C16.5585 21.202 16.4011 21.3435 16.2861 21.4413C16.2285 21.4903 16.1813 21.5285 16.147 21.5556C16.1299 21.5691 16.116 21.5799 16.1056 21.5878L16.0927 21.5976L16.0883 21.6008L16.0867 21.6021L16.086 21.6026C16.0856 21.6028 16.0853 21.6031 15.6395 20.9999L16.0853 21.6031L15.1 22.3314L14.8996 21.1226C14.8943 21.0904 14.889 21.0584 14.8837 21.0265C14.6333 19.5132 14.4451 18.3752 13.1255 17.6771C12.8997 17.8059 12.6685 17.9338 12.4317 18.0609L11.5162 18.5521L11.3382 17.5285C11.2676 17.1228 10.7984 15.7851 9.50662 14.4934C8.21489 13.2016 6.8772 12.7324 6.4715 12.6618L5.44794 12.4838L5.93913 11.5683C6.05918 11.3446 6.18002 11.1258 6.30158 10.9119C5.60178 9.62803 4.47151 9.44104 2.97347 9.19319C2.94159 9.18792 2.90955 9.18262 2.87733 9.17728C2.61977 9.13457 2.40294 8.961 2.3049 8.71902C2.20685 8.47705 2.2417 8.20149 2.3969 7.99155L3.00001 8.43738C2.3969 7.99155 2.39712 7.99125 2.39735 7.99094L2.39787 7.99024L2.39911 7.98857L2.4024 7.98418L2.41216 7.97129C2.42009 7.96091 2.43084 7.94699 2.44437 7.92986C2.47143 7.89561 2.50965 7.84841 2.55863 7.79083C2.65643 7.67584 2.79795 7.51843 2.97981 7.33954C3.34128 6.98395 3.87416 6.53154 4.55185 6.16163C5.85825 5.44854 7.6964 5.056 9.76958 6.1913ZM8.73236 7.34787C7.33131 6.70599 6.1566 6.99461 5.27053 7.47826C4.9989 7.62653 4.75413 7.79415 4.54036 7.96163C5.46063 8.18693 6.41661 8.5878 7.15757 9.50184C7.67407 8.70626 8.20052 7.99048 8.73236 7.34787ZM7.70155 11.4853C8.50636 11.8169 9.56221 12.4276 10.5673 13.4327C11.5724 14.4378 12.1831 15.4936 12.5147 16.2984C20.5587 11.6589 20.73 6.28039 19.9366 4.06342C17.7196 3.27003 12.3411 3.44128 7.70155 11.4853ZM3.60272 8.88373L3.60194 8.88479L3.6024 8.88417L3.60272 8.88373ZM14.5407 16.8148C15.4791 17.5595 15.8872 18.5279 16.1153 19.4596C16.2827 19.2458 16.4504 19.0011 16.5986 18.7294C17.0876 17.8337 17.3772 16.6429 16.7076 15.2215C16.0622 15.7596 15.3421 16.2922 14.5407 16.8148ZM3.60176 8.88503C3.6017 8.88511 3.6017 8.88511 3.60177 8.88501L3.60176 8.88503ZM13.0508 8.45002C13.0508 7.06931 14.1701 5.95002 15.5508 5.95002C16.9315 5.95002 18.0508 7.06931 18.0508 8.45002C18.0508 9.83073 16.9315 10.95 15.5508 10.95C14.1701 10.95 13.0508 9.83073 13.0508 8.45002ZM15.5508 7.45002C14.9985 7.45002 14.5508 7.89773 14.5508 8.45002C14.5508 9.0023 14.9985 9.45002 15.5508 9.45002C16.1031 9.45002 16.5508 9.0023 16.5508 8.45002C16.5508 7.89773 16.1031 7.45002 15.5508 7.45002ZM6.54842 14.3809C6.84132 14.6738 6.84132 15.1487 6.54842 15.4416C6.21019 15.7798 5.57938 16.814 5.86032 18.14C7.18635 18.421 8.22053 17.7901 8.55877 17.4519C8.85166 17.159 9.32654 17.159 9.61943 17.4519C9.91232 17.7448 9.91232 18.2197 9.61943 18.5126C8.96509 19.1669 7.19557 20.189 5.01317 19.4615L4.65741 19.3429L4.53883 18.9872C3.81136 16.8048 4.83343 15.0352 5.48776 14.3809C5.78066 14.088 6.25553 14.088 6.54842 14.3809Z" fill="currentColor"></path></svg>